<svg width="18" height="18" viewBox="0 0 18 18" fill="none" xmlns="http://www.w3.org/2000/svg">
<path fill-rule="evenodd" clip-rule="evenodd" d="M14.3137 6.79096C14.4606 7.21829 14.8308 7.53815 15.2661 7.65933C16.8443 8.09864 18 9.53339 18 11.25C18 13.32 16.32 15 14.25 15H4.5C2.0175 15 0 12.9825 0 10.5C0 8.36699 1.48669 6.57707 3.48353 6.11848C3.81006 6.04349 4.10026 5.8478 4.28263 5.56675C5.28483 4.02228 7.02398 3 9 3C11.4632 3 13.5539 4.58132 14.3137 6.79096ZM10.5 10.25C10.5 9.97386 10.7239 9.75 11 9.75H11.5447C11.9899 9.75 12.2131 9.21197 11.8987 8.89683L9.27 6.2625C9.12 6.1125 8.8875 6.1125 8.7375 6.2625L6.10355 8.89645C5.78857 9.21143 6.01165 9.75 6.45711 9.75H7C7.27614 9.75 7.5 9.97386 7.5 10.25V12.25C7.5 12.5261 7.72386 12.75 8 12.75H10C10.2761 12.75 10.5 12.5261 10.5 12.25V10.25Z" fill="#7E7E7E"/>
</svg>
